<?xml version="1.0" standalone="no"?>
<!DOCTYPE svg PUBLIC "-//W3C//DTD SVG 20010904//EN"
 "http://www.w3.org/TR/2001/REC-SVG-20010904/DTD/svg10.dtd">
<svg version="1.0" xmlns="http://www.w3.org/2000/svg"
 width="2042.000000pt" height="2042.000000pt" viewBox="0 0 2042.000000 2042.000000"
 preserveAspectRatio="xMidYMid meet">
<metadata>
Created by potrace 1.14, written by Peter Selinger 2001-2017
</metadata>
<g transform="translate(0.000000,2042.000000) scale(0.100000,-0.100000)"
fill="#000000" stroke="none">
<path d="M1884 16341 c-3 -3 -24 -6 -47 -8 -42 -2 -73 -7 -137 -18 -19 -4 -43
-7 -52 -7 -10 1 -20 -3 -23 -8 -3 -5 -12 -7 -19 -4 -8 3 -17 0 -21 -5 -3 -6
-11 -9 -16 -6 -5 4 -15 3 -21 -2 -7 -4 -17 -8 -23 -10 -38 -8 -58 -14 -125
-38 -41 -14 -82 -29 -90 -32 -8 -4 -17 -7 -20 -8 -11 -3 -126 -56 -140 -65 -8
-5 -35 -19 -60 -31 -191 -95 -476 -334 -635 -534 -53 -67 -137 -185 -162 -229
-30 -54 -142 -284 -148 -306 -4 -14 -11 -30 -16 -36 -5 -6 -10 -19 -12 -30 -1
-10 -6 -25 -10 -31 -5 -7 -6 -13 -2 -13 3 0 -1 -13 -10 -30 -8 -16 -16 -33
-16 -37 0 -5 -2 -17 -5 -29 -3 -11 -7 -29 -9 -40 -2 -10 -4 -19 -5 -19 -2 0
-6 -24 -14 -75 -2 -14 -5 -26 -6 -27 -1 -2 -4 -12 -5 -23 -1 -11 -4 -23 -5
-27 -3 -10 -10 -69 -12 -110 -1 -18 -5 -33 -10 -33 -8 0 -4 -8532 4 -8585 3
-16 6 -32 8 -35 1 -3 4 -21 6 -40 5 -48 11 -85 13 -85 1 0 4 -11 6 -25 6 -32
13 -65 15 -65 1 0 4 -11 6 -25 3 -14 10 -43 16 -65 6 -22 12 -42 13 -45 0 -3
6 -15 13 -27 7 -13 10 -23 7 -23 -3 0 1 -13 10 -30 8 -16 16 -33 16 -37 3 -15
11 -38 25 -71 7 -17 14 -35 15 -40 2 -10 83 -162 104 -198 169 -275 389 -504
660 -689 17 -12 37 -24 45 -28 8 -5 33 -19 55 -32 89 -54 313 -155 355 -160 3
0 11 -4 18 -8 6 -5 12 -6 12 -3 0 3 20 -3 45 -14 25 -11 45 -18 45 -15 0 2 15
-1 33 -6 59 -18 97 -27 152 -35 22 -3 54 -8 70 -10 17 -3 44 -6 62 -7 18 -1
35 -6 39 -10 11 -11 16662 -9 16669 2 3 6 21 8 40 7 19 -2 37 0 40 4 3 5 17 7
33 5 15 -2 31 0 37 3 5 3 18 7 30 8 22 3 58 10 95 19 14 4 34 8 45 10 11 2 20
4 20 5 0 1 8 3 18 6 9 2 25 6 35 8 9 3 18 5 20 6 1 2 7 4 12 5 6 1 12 4 15 5
3 1 10 4 15 5 6 1 12 4 15 5 3 1 8 3 13 4 58 9 363 159 462 227 290 199 558
490 681 739 12 25 31 57 41 72 11 16 17 28 14 28 -3 0 6 20 20 45 13 25 22 45
19 45 -3 0 0 10 7 22 7 13 13 25 13 28 0 3 6 15 13 28 7 12 10 22 6 22 -3 0
-1 7 6 15 7 8 9 15 5 15 -4 0 -2 7 5 15 7 8 9 15 5 15 -4 0 -2 7 5 15 7 8 9
15 5 15 -4 0 -2 6 4 14 6 8 11 18 10 22 -1 5 0 12 1 17 1 4 3 10 4 15 2 4 7
25 14 47 12 42 20 82 28 128 2 15 7 42 11 60 10 47 15 8747 4 8747 -4 0 -7 11
-6 25 2 14 -1 27 -5 30 -5 3 -7 15 -5 27 3 11 1 26 -3 32 -4 6 -7 19 -8 29 -1
9 -2 18 -4 20 -2 2 -5 15 -13 57 -3 14 -10 37 -16 53 -6 15 -8 27 -5 27 2 0
-2 14 -11 30 -9 17 -13 30 -9 30 4 0 1 7 -6 15 -7 8 -9 15 -5 15 4 0 2 7 -5
15 -7 8 -9 15 -6 15 4 0 1 10 -6 23 -6 12 -13 27 -14 32 -2 13 -62 146 -74
165 -5 8 -21 38 -35 65 -28 56 -33 64 -94 155 -126 187 -292 365 -463 496 -93
71 -220 153 -283 184 -16 8 -37 20 -46 27 -9 8 -26 16 -39 18 -12 2 -27 9 -34
14 -6 5 -36 19 -66 30 -30 12 -64 26 -75 32 -12 6 -27 11 -35 12 -8 2 -21 6
-27 10 -7 5 -13 5 -13 1 0 -3 -7 -1 -15 6 -8 7 -15 9 -15 5 0 -4 -7 -2 -15 5
-8 7 -15 10 -15 6 0 -3 -12 -1 -27 5 -16 6 -39 13 -53 16 -43 9 -55 11 -55 13
0 1 -11 4 -25 6 -14 2 -38 6 -55 9 -40 8 -81 14 -135 21 -53 6 -16699 11
-16706 5z"/>
</g>
</svg>
